<svg xmlns="http://www.w3.org/2000/svg" width="594" height="594" viewBox="0 0 594 594" role="img" aria-label="QR code for https://oai-trivia.vercel.app/">
<rect width="100%" height="100%" fill="#ffffff"/>
<g fill="#000000">
<rect x="72" y="72" width="18" height="18"/>
<rect x="90" y="72" width="18" height="18"/>
<rect x="108" y="72" width="18" height="18"/>
<rect x="126" y="72" width="18" height="18"/>
<rect x="144" y="72" width="18" height="18"/>
<rect x="162" y="72" width="18" height="18"/>
<rect x="180" y="72" width="18" height="18"/>
<rect x="234" y="72" width="18" height="18"/>
<rect x="252" y="72" width="18" height="18"/>
<rect x="270" y="72" width="18" height="18"/>
<rect x="288" y="72" width="18" height="18"/>
<rect x="324" y="72" width="18" height="18"/>
<rect x="342" y="72" width="18" height="18"/>
<rect x="396" y="72" width="18" height="18"/>
<rect x="414" y="72" width="18" height="18"/>
<rect x="432" y="72" width="18" height="18"/>
<rect x="450" y="72" width="18" height="18"/>
<rect x="468" y="72" width="18" height="18"/>
<rect x="486" y="72" width="18" height="18"/>
<rect x="504" y="72" width="18" height="18"/>
<rect x="72" y="90" width="18" height="18"/>
<rect x="180" y="90" width="18" height="18"/>
<rect x="252" y="90" width="18" height="18"/>
<rect x="270" y="90" width="18" height="18"/>
<rect x="306" y="90" width="18" height="18"/>
<rect x="342" y="90" width="18" height="18"/>
<rect x="360" y="90" width="18" height="18"/>
<rect x="396" y="90" width="18" height="18"/>
<rect x="504" y="90" width="18" height="18"/>
<rect x="72" y="108" width="18" height="18"/>
<rect x="108" y="108" width="18" height="18"/>
<rect x="126" y="108" width="18" height="18"/>
<rect x="144" y="108" width="18" height="18"/>
<rect x="180" y="108" width="18" height="18"/>
<rect x="216" y="108" width="18" height="18"/>
<rect x="288" y="108" width="18" height="18"/>
<rect x="360" y="108" width="18" height="18"/>
<rect x="396" y="108" width="18" height="18"/>
<rect x="432" y="108" width="18" height="18"/>
<rect x="450" y="108" width="18" height="18"/>
<rect x="468" y="108" width="18" height="18"/>
<rect x="504" y="108" width="18" height="18"/>
<rect x="72" y="126" width="18" height="18"/>
<rect x="108" y="126" width="18" height="18"/>
<rect x="126" y="126" width="18" height="18"/>
<rect x="144" y="126" width="18" height="18"/>
<rect x="180" y="126" width="18" height="18"/>
<rect x="234" y="126" width="18" height="18"/>
<rect x="270" y="126" width="18" height="18"/>
<rect x="288" y="126" width="18" height="18"/>
<rect x="396" y="126" width="18" height="18"/>
<rect x="432" y="126" width="18" height="18"/>
<rect x="450" y="126" width="18" height="18"/>
<rect x="468" y="126" width="18" height="18"/>
<rect x="504" y="126" width="18" height="18"/>
<rect x="72" y="144" width="18" height="18"/>
<rect x="108" y="144" width="18" height="18"/>
<rect x="126" y="144" width="18" height="18"/>
<rect x="144" y="144" width="18" height="18"/>
<rect x="180" y="144" width="18" height="18"/>
<rect x="234" y="144" width="18" height="18"/>
<rect x="252" y="144" width="18" height="18"/>
<rect x="270" y="144" width="18" height="18"/>
<rect x="306" y="144" width="18" height="18"/>
<rect x="324" y="144" width="18" height="18"/>
<rect x="342" y="144" width="18" height="18"/>
<rect x="396" y="144" width="18" height="18"/>
<rect x="432" y="144" width="18" height="18"/>
<rect x="450" y="144" width="18" height="18"/>
<rect x="468" y="144" width="18" height="18"/>
<rect x="504" y="144" width="18" height="18"/>
<rect x="72" y="162" width="18" height="18"/>
<rect x="180" y="162" width="18" height="18"/>
<rect x="252" y="162" width="18" height="18"/>
<rect x="270" y="162" width="18" height="18"/>
<rect x="324" y="162" width="18" height="18"/>
<rect x="342" y="162" width="18" height="18"/>
<rect x="396" y="162" width="18" height="18"/>
<rect x="504" y="162" width="18" height="18"/>
<rect x="72" y="180" width="18" height="18"/>
<rect x="90" y="180" width="18" height="18"/>
<rect x="108" y="180" width="18" height="18"/>
<rect x="126" y="180" width="18" height="18"/>
<rect x="144" y="180" width="18" height="18"/>
<rect x="162" y="180" width="18" height="18"/>
<rect x="180" y="180" width="18" height="18"/>
<rect x="216" y="180" width="18" height="18"/>
<rect x="252" y="180" width="18" height="18"/>
<rect x="288" y="180" width="18" height="18"/>
<rect x="324" y="180" width="18" height="18"/>
<rect x="360" y="180" width="18" height="18"/>
<rect x="396" y="180" width="18" height="18"/>
<rect x="414" y="180" width="18" height="18"/>
<rect x="432" y="180" width="18" height="18"/>
<rect x="450" y="180" width="18" height="18"/>
<rect x="468" y="180" width="18" height="18"/>
<rect x="486" y="180" width="18" height="18"/>
<rect x="504" y="180" width="18" height="18"/>
<rect x="216" y="198" width="18" height="18"/>
<rect x="270" y="198" width="18" height="18"/>
<rect x="306" y="198" width="18" height="18"/>
<rect x="360" y="198" width="18" height="18"/>
<rect x="72" y="216" width="18" height="18"/>
<rect x="90" y="216" width="18" height="18"/>
<rect x="108" y="216" width="18" height="18"/>
<rect x="144" y="216" width="18" height="18"/>
<rect x="162" y="216" width="18" height="18"/>
<rect x="180" y="216" width="18" height="18"/>
<rect x="198" y="216" width="18" height="18"/>
<rect x="216" y="216" width="18" height="18"/>
<rect x="306" y="216" width="18" height="18"/>
<rect x="378" y="216" width="18" height="18"/>
<rect x="396" y="216" width="18" height="18"/>
<rect x="468" y="216" width="18" height="18"/>
<rect x="72" y="234" width="18" height="18"/>
<rect x="126" y="234" width="18" height="18"/>
<rect x="162" y="234" width="18" height="18"/>
<rect x="198" y="234" width="18" height="18"/>
<rect x="216" y="234" width="18" height="18"/>
<rect x="234" y="234" width="18" height="18"/>
<rect x="288" y="234" width="18" height="18"/>
<rect x="306" y="234" width="18" height="18"/>
<rect x="324" y="234" width="18" height="18"/>
<rect x="360" y="234" width="18" height="18"/>
<rect x="378" y="234" width="18" height="18"/>
<rect x="396" y="234" width="18" height="18"/>
<rect x="504" y="234" width="18" height="18"/>
<rect x="180" y="252" width="18" height="18"/>
<rect x="198" y="252" width="18" height="18"/>
<rect x="252" y="252" width="18" height="18"/>
<rect x="306" y="252" width="18" height="18"/>
<rect x="396" y="252" width="18" height="18"/>
<rect x="414" y="252" width="18" height="18"/>
<rect x="468" y="252" width="18" height="18"/>
<rect x="486" y="252" width="18" height="18"/>
<rect x="504" y="252" width="18" height="18"/>
<rect x="72" y="270" width="18" height="18"/>
<rect x="108" y="270" width="18" height="18"/>
<rect x="126" y="270" width="18" height="18"/>
<rect x="162" y="270" width="18" height="18"/>
<rect x="234" y="270" width="18" height="18"/>
<rect x="252" y="270" width="18" height="18"/>
<rect x="270" y="270" width="18" height="18"/>
<rect x="306" y="270" width="18" height="18"/>
<rect x="342" y="270" width="18" height="18"/>
<rect x="432" y="270" width="18" height="18"/>
<rect x="486" y="270" width="18" height="18"/>
<rect x="90" y="288" width="18" height="18"/>
<rect x="108" y="288" width="18" height="18"/>
<rect x="126" y="288" width="18" height="18"/>
<rect x="162" y="288" width="18" height="18"/>
<rect x="180" y="288" width="18" height="18"/>
<rect x="198" y="288" width="18" height="18"/>
<rect x="252" y="288" width="18" height="18"/>
<rect x="288" y="288" width="18" height="18"/>
<rect x="306" y="288" width="18" height="18"/>
<rect x="342" y="288" width="18" height="18"/>
<rect x="360" y="288" width="18" height="18"/>
<rect x="378" y="288" width="18" height="18"/>
<rect x="396" y="288" width="18" height="18"/>
<rect x="450" y="288" width="18" height="18"/>
<rect x="486" y="288" width="18" height="18"/>
<rect x="504" y="288" width="18" height="18"/>
<rect x="144" y="306" width="18" height="18"/>
<rect x="162" y="306" width="18" height="18"/>
<rect x="216" y="306" width="18" height="18"/>
<rect x="252" y="306" width="18" height="18"/>
<rect x="288" y="306" width="18" height="18"/>
<rect x="306" y="306" width="18" height="18"/>
<rect x="360" y="306" width="18" height="18"/>
<rect x="378" y="306" width="18" height="18"/>
<rect x="396" y="306" width="18" height="18"/>
<rect x="450" y="306" width="18" height="18"/>
<rect x="504" y="306" width="18" height="18"/>
<rect x="72" y="324" width="18" height="18"/>
<rect x="126" y="324" width="18" height="18"/>
<rect x="162" y="324" width="18" height="18"/>
<rect x="180" y="324" width="18" height="18"/>
<rect x="198" y="324" width="18" height="18"/>
<rect x="234" y="324" width="18" height="18"/>
<rect x="288" y="324" width="18" height="18"/>
<rect x="360" y="324" width="18" height="18"/>
<rect x="414" y="324" width="18" height="18"/>
<rect x="468" y="324" width="18" height="18"/>
<rect x="486" y="324" width="18" height="18"/>
<rect x="504" y="324" width="18" height="18"/>
<rect x="90" y="342" width="18" height="18"/>
<rect x="108" y="342" width="18" height="18"/>
<rect x="126" y="342" width="18" height="18"/>
<rect x="144" y="342" width="18" height="18"/>
<rect x="198" y="342" width="18" height="18"/>
<rect x="216" y="342" width="18" height="18"/>
<rect x="234" y="342" width="18" height="18"/>
<rect x="288" y="342" width="18" height="18"/>
<rect x="306" y="342" width="18" height="18"/>
<rect x="324" y="342" width="18" height="18"/>
<rect x="432" y="342" width="18" height="18"/>
<rect x="486" y="342" width="18" height="18"/>
<rect x="72" y="360" width="18" height="18"/>
<rect x="108" y="360" width="18" height="18"/>
<rect x="144" y="360" width="18" height="18"/>
<rect x="180" y="360" width="18" height="18"/>
<rect x="198" y="360" width="18" height="18"/>
<rect x="252" y="360" width="18" height="18"/>
<rect x="270" y="360" width="18" height="18"/>
<rect x="288" y="360" width="18" height="18"/>
<rect x="306" y="360" width="18" height="18"/>
<rect x="360" y="360" width="18" height="18"/>
<rect x="378" y="360" width="18" height="18"/>
<rect x="396" y="360" width="18" height="18"/>
<rect x="414" y="360" width="18" height="18"/>
<rect x="432" y="360" width="18" height="18"/>
<rect x="450" y="360" width="18" height="18"/>
<rect x="216" y="378" width="18" height="18"/>
<rect x="234" y="378" width="18" height="18"/>
<rect x="306" y="378" width="18" height="18"/>
<rect x="324" y="378" width="18" height="18"/>
<rect x="360" y="378" width="18" height="18"/>
<rect x="432" y="378" width="18" height="18"/>
<rect x="450" y="378" width="18" height="18"/>
<rect x="486" y="378" width="18" height="18"/>
<rect x="504" y="378" width="18" height="18"/>
<rect x="72" y="396" width="18" height="18"/>
<rect x="90" y="396" width="18" height="18"/>
<rect x="108" y="396" width="18" height="18"/>
<rect x="126" y="396" width="18" height="18"/>
<rect x="144" y="396" width="18" height="18"/>
<rect x="162" y="396" width="18" height="18"/>
<rect x="180" y="396" width="18" height="18"/>
<rect x="216" y="396" width="18" height="18"/>
<rect x="288" y="396" width="18" height="18"/>
<rect x="306" y="396" width="18" height="18"/>
<rect x="324" y="396" width="18" height="18"/>
<rect x="342" y="396" width="18" height="18"/>
<rect x="360" y="396" width="18" height="18"/>
<rect x="396" y="396" width="18" height="18"/>
<rect x="432" y="396" width="18" height="18"/>
<rect x="450" y="396" width="18" height="18"/>
<rect x="486" y="396" width="18" height="18"/>
<rect x="504" y="396" width="18" height="18"/>
<rect x="72" y="414" width="18" height="18"/>
<rect x="180" y="414" width="18" height="18"/>
<rect x="216" y="414" width="18" height="18"/>
<rect x="252" y="414" width="18" height="18"/>
<rect x="270" y="414" width="18" height="18"/>
<rect x="288" y="414" width="18" height="18"/>
<rect x="306" y="414" width="18" height="18"/>
<rect x="360" y="414" width="18" height="18"/>
<rect x="432" y="414" width="18" height="18"/>
<rect x="450" y="414" width="18" height="18"/>
<rect x="486" y="414" width="18" height="18"/>
<rect x="504" y="414" width="18" height="18"/>
<rect x="72" y="432" width="18" height="18"/>
<rect x="108" y="432" width="18" height="18"/>
<rect x="126" y="432" width="18" height="18"/>
<rect x="144" y="432" width="18" height="18"/>
<rect x="180" y="432" width="18" height="18"/>
<rect x="216" y="432" width="18" height="18"/>
<rect x="252" y="432" width="18" height="18"/>
<rect x="270" y="432" width="18" height="18"/>
<rect x="288" y="432" width="18" height="18"/>
<rect x="306" y="432" width="18" height="18"/>
<rect x="360" y="432" width="18" height="18"/>
<rect x="378" y="432" width="18" height="18"/>
<rect x="396" y="432" width="18" height="18"/>
<rect x="414" y="432" width="18" height="18"/>
<rect x="432" y="432" width="18" height="18"/>
<rect x="450" y="432" width="18" height="18"/>
<rect x="486" y="432" width="18" height="18"/>
<rect x="72" y="450" width="18" height="18"/>
<rect x="108" y="450" width="18" height="18"/>
<rect x="126" y="450" width="18" height="18"/>
<rect x="144" y="450" width="18" height="18"/>
<rect x="180" y="450" width="18" height="18"/>
<rect x="234" y="450" width="18" height="18"/>
<rect x="252" y="450" width="18" height="18"/>
<rect x="288" y="450" width="18" height="18"/>
<rect x="306" y="450" width="18" height="18"/>
<rect x="342" y="450" width="18" height="18"/>
<rect x="378" y="450" width="18" height="18"/>
<rect x="414" y="450" width="18" height="18"/>
<rect x="432" y="450" width="18" height="18"/>
<rect x="450" y="450" width="18" height="18"/>
<rect x="468" y="450" width="18" height="18"/>
<rect x="72" y="468" width="18" height="18"/>
<rect x="108" y="468" width="18" height="18"/>
<rect x="126" y="468" width="18" height="18"/>
<rect x="144" y="468" width="18" height="18"/>
<rect x="180" y="468" width="18" height="18"/>
<rect x="216" y="468" width="18" height="18"/>
<rect x="252" y="468" width="18" height="18"/>
<rect x="306" y="468" width="18" height="18"/>
<rect x="324" y="468" width="18" height="18"/>
<rect x="342" y="468" width="18" height="18"/>
<rect x="360" y="468" width="18" height="18"/>
<rect x="432" y="468" width="18" height="18"/>
<rect x="504" y="468" width="18" height="18"/>
<rect x="72" y="486" width="18" height="18"/>
<rect x="180" y="486" width="18" height="18"/>
<rect x="216" y="486" width="18" height="18"/>
<rect x="234" y="486" width="18" height="18"/>
<rect x="270" y="486" width="18" height="18"/>
<rect x="288" y="486" width="18" height="18"/>
<rect x="306" y="486" width="18" height="18"/>
<rect x="324" y="486" width="18" height="18"/>
<rect x="360" y="486" width="18" height="18"/>
<rect x="396" y="486" width="18" height="18"/>
<rect x="432" y="486" width="18" height="18"/>
<rect x="450" y="486" width="18" height="18"/>
<rect x="486" y="486" width="18" height="18"/>
<rect x="72" y="504" width="18" height="18"/>
<rect x="90" y="504" width="18" height="18"/>
<rect x="108" y="504" width="18" height="18"/>
<rect x="126" y="504" width="18" height="18"/>
<rect x="144" y="504" width="18" height="18"/>
<rect x="162" y="504" width="18" height="18"/>
<rect x="180" y="504" width="18" height="18"/>
<rect x="216" y="504" width="18" height="18"/>
<rect x="234" y="504" width="18" height="18"/>
<rect x="288" y="504" width="18" height="18"/>
<rect x="306" y="504" width="18" height="18"/>
<rect x="342" y="504" width="18" height="18"/>
<rect x="360" y="504" width="18" height="18"/>
<rect x="378" y="504" width="18" height="18"/>
<rect x="396" y="504" width="18" height="18"/>
<rect x="414" y="504" width="18" height="18"/>
<rect x="486" y="504" width="18" height="18"/>
<rect x="504" y="504" width="18" height="18"/>
</g>
</svg>
